<?xml version="1.0" standalone="no"?>
<!DOCTYPE svg PUBLIC "-//W3C//DTD SVG 20010904//EN"
 "http://www.w3.org/TR/2001/REC-SVG-20010904/DTD/svg10.dtd">
<svg version="1.0" xmlns="http://www.w3.org/2000/svg"
 width="1386.000000pt" height="1386.000000pt" viewBox="0 0 1386.000000 1386.000000"
 preserveAspectRatio="xMidYMid meet">
<metadata>
Created by potrace 1.14, written by Peter Selinger 2001-2017
</metadata>
<g transform="translate(0.000000,1386.000000) scale(0.100000,-0.100000)"
fill="#000000" stroke="none">
<path d="M2383 13849 c-131 -16 -225 -64 -313 -159 -63 -68 -73 -81 -66 -87 3
-3 -1 -12 -9 -19 -12 -13 -26 -47 -54 -135 -8 -26 -11 -1739 -11 -6519 l0
-6483 21 -71 c21 -71 43 -119 66 -144 7 -7 13 -17 13 -22 0 -9 57 -68 98 -102
24 -20 132 -81 132 -74 0 2 27 -4 60 -15 57 -18 206 -18 4607 -18 4133 0 4553
1 4612 16 37 9 70 20 75 24 6 5 16 9 23 9 20 0 113 68 162 119 45 46 104 157
118 221 10 46 10 13035 0 13079 -4 19 -11 39 -15 45 -3 6 -8 20 -9 30 -2 11
-10 27 -18 36 -8 9 -15 21 -15 26 0 5 -11 21 -25 36 -14 15 -25 32 -25 38 0 5
-7 10 -17 10 -9 0 -13 3 -10 6 8 9 -55 64 -65 58 -4 -3 -8 -1 -8 3 0 7 -55 46
-70 49 -3 0 -18 6 -34 13 -16 6 -49 16 -75 23 -50 12 -9050 19 -9148 7z"/>
</g>
</svg>
